<svg width="36" height="36" viewBox="0 0 36 36" fill="none" xmlns="http://www.w3.org/2000/svg">
<path d="M0.50354 18.0036C0.505576 26.6125 6.76574 33.9426 15.2683 35.2918V23.0611H10.8285V18.0036H15.2735V14.1536C15.0748 12.3293 15.698 10.5111 16.9739 9.19221C18.2499 7.8733 20.0464 7.19035 21.8763 7.32858C23.1897 7.34979 24.4999 7.46677 25.7963 7.67858V11.9818H23.5843C22.8228 11.8821 22.0572 12.1336 21.5031 12.6655C20.9491 13.1974 20.6666 13.9521 20.7353 14.7171V18.0036H25.5845L24.8093 23.0628H20.7353V35.2918C29.9306 33.8386 36.3787 25.4407 35.4082 16.182C34.4377 6.92322 26.3883 0.0449534 17.0915 0.53014C7.79467 1.01533 0.505018 8.69412 0.50354 18.0036Z" fill="#2D2D2D"/>
</svg>
