<svg width="32" height="32" viewBox="0 0 32 32" fill="none" xmlns="http://www.w3.org/2000/svg">
<path d="M16.0035 31.8217C11.6985 31.8217 11.191 31.7989 9.51104 31.7254C8.20094 31.6823 6.9078 31.416 5.68729 30.9379C3.57559 30.1161 1.90579 28.4457 1.08479 26.3337C0.625076 25.1087 0.377121 23.8145 0.35154 22.5064C0.25354 20.8299 0.25354 20.2804 0.25354 16.0087C0.25354 11.6914 0.27629 11.1874 0.35154 9.51617C0.377681 8.20983 0.625627 6.91743 1.08479 5.69417C1.90489 3.57934 3.57741 1.90747 5.69254 1.08817C6.91517 0.626521 8.2079 0.37792 9.51454 0.353167C11.1858 0.258667 11.7353 0.258667 16.0035 0.258667C20.3435 0.258667 20.8423 0.281417 22.496 0.353167C23.8061 0.378134 25.1022 0.626709 26.3285 1.08817C28.4431 1.9084 30.1153 3.57995 30.9363 5.69417C31.4038 6.93526 31.653 8.24786 31.673 9.57392C31.771 11.2504 31.771 11.7982 31.771 16.0682C31.771 20.3382 31.7465 20.8982 31.673 22.5554C31.647 23.8648 31.3984 25.1602 30.938 26.3862C30.1149 28.4997 28.4426 30.1707 26.3285 30.9922C25.104 31.451 23.8105 31.6989 22.503 31.7254C20.8318 31.8217 20.284 31.8217 16.0035 31.8217ZM15.944 3.02892C11.6635 3.02892 11.219 3.04992 9.54779 3.12517C8.55026 3.13838 7.56238 3.32246 6.62704 3.66942C5.24586 4.19793 4.15294 5.2864 3.61879 6.66542C3.26916 7.61094 3.08505 8.60963 3.07454 9.61767C2.98179 11.3134 2.98179 11.7579 2.98179 16.0087C2.98179 20.2087 2.99754 20.7179 3.07454 22.4032C3.09021 23.401 3.27421 24.3891 3.61879 25.3257C4.15372 26.7038 5.24645 27.7914 6.62704 28.3199C7.56174 28.6692 8.55003 28.8533 9.54779 28.8642C11.2418 28.9622 11.688 28.9622 15.944 28.9622C20.2368 28.9622 20.6813 28.9412 22.3385 28.8642C23.3367 28.852 24.3254 28.6679 25.261 28.3199C26.6339 27.7868 27.7197 26.7017 28.2535 25.3292C28.6025 24.3829 28.7866 23.3837 28.7978 22.3752H28.817C28.8923 20.7022 28.8923 20.2559 28.8923 15.9807C28.8923 11.7054 28.873 11.2557 28.7978 9.58442C28.7821 8.58771 28.5981 7.60081 28.2535 6.66542C27.7209 5.29092 26.6349 4.20368 25.261 3.66942C24.3256 3.32071 23.3368 3.13658 22.3385 3.12517C20.6463 3.02892 20.2035 3.02892 15.944 3.02892ZM16.0035 24.0919C12.731 24.094 9.77952 22.1245 8.52555 19.1017C7.27158 16.079 7.96213 12.5985 10.2751 10.2835C12.5882 7.96845 16.068 7.27489 19.0919 8.52625C22.1157 9.77761 24.0878 12.7274 24.0885 15.9999C24.0837 20.4643 20.4679 24.0832 16.0035 24.0919ZM16.0035 10.7464C13.104 10.7464 10.7535 13.0969 10.7535 15.9964C10.7535 18.8959 13.104 21.2464 16.0035 21.2464C18.903 21.2464 21.2535 18.8959 21.2535 15.9964C21.2468 13.0997 18.9002 10.7532 16.0035 10.7464ZM24.4035 9.49867C23.363 9.4948 22.5221 8.6492 22.524 7.60868C22.526 6.56817 23.37 5.72568 24.4105 5.72568C25.4511 5.72568 26.2951 6.56815 26.297 7.60867C26.2975 8.11068 26.0981 8.59221 25.7428 8.94685C25.3874 9.3015 24.9056 9.50006 24.4035 9.49867Z" fill="#2D2D2D"/>
</svg>
