<svg width="32" height="32" viewBox="0 0 32 32" fill="none" xmlns="http://www.w3.org/2000/svg">
<path d="M17.75 31.75H10.75V10.75H17.75V14.25C19.2421 12.3517 21.5049 11.22 23.9188 11.1648C28.2598 11.1888 31.7626 14.7214 31.75 19.0625V31.75H24.75V19.9375C24.4701 17.9821 22.7931 16.5313 20.8178 16.5355C19.9537 16.5628 19.1382 16.9411 18.5593 17.5831C17.9804 18.2251 17.6881 19.0753 17.75 19.9375V31.75ZM7.25 31.75H0.25V10.75H7.25V31.75ZM3.75 7.25C1.817 7.25 0.25 5.683 0.25 3.75C0.25 1.817 1.817 0.25 3.75 0.25C5.683 0.25 7.25 1.817 7.25 3.75C7.25 4.67826 6.88125 5.5685 6.22487 6.22487C5.5685 6.88125 4.67826 7.25 3.75 7.25Z" fill="#2D2D2D"/>
</svg>
