<?xml version="1.0" encoding="UTF-8" standalone="no"?><!DOCTYPE svg PUBLIC "-//W3C//DTD SVG 1.1//EN" "http://www.w3.org/Graphics/SVG/1.1/DTD/svg11.dtd"><svg width="100%" height="100%" viewBox="0 0 372 70" version="1.1" xmlns="http://www.w3.org/2000/svg" xmlns:xlink="http://www.w3.org/1999/xlink" xml:space="preserve" xmlns:serif="http://www.serif.com/" style="fill-rule:evenodd;clip-rule:evenodd;stroke-linejoin:round;stroke-miterlimit:2;"><path d="M34.848,69.216c-9.728,0 -17.984,-3.296 -24.768,-9.888c-6.72,-6.656 -10.08,-14.88 -10.08,-24.672c-0,-9.792 3.36,-18.016 10.08,-24.672c6.72,-6.656 14.88,-9.984 24.48,-9.984c9.408,-0 17.216,3.168 23.424,9.504c0.768,0.768 0.768,1.6 0,2.496l-6.432,6.816c-0.64,0.768 -1.344,0.832 -2.112,0.192c-4.48,-3.712 -9.408,-5.568 -14.784,-5.568c-5.888,0 -10.816,2.016 -14.784,6.048c-3.968,4.032 -5.952,9.088 -5.952,15.168c0,6.08 2.016,11.136 6.048,15.168c4.032,3.968 9.152,5.952 15.36,5.952c5.12,0 9.216,-1.312 12.288,-3.936c3.072,-2.624 4.768,-5.92 5.088,-9.888l-17.376,-0c-0.96,-0 -1.44,-0.48 -1.44,-1.44l0,-9.312c0,-0.96 0.48,-1.44 1.44,-1.44l28.992,-0c0.96,-0 1.44,0.48 1.44,1.44l0,6.24c0,9.088 -2.816,16.672 -8.448,22.752c-5.568,6.016 -13.056,9.024 -22.464,9.024Zm93.563,-2.88c0.192,0.448 0.159,0.832 -0.097,1.152c-0.256,0.32 -0.64,0.48 -1.151,0.48l-11.329,0c-0.832,0 -1.376,-0.384 -1.631,-1.152l-3.264,-9.888l-25.345,0l-3.264,9.888c-0.256,0.768 -0.8,1.152 -1.632,1.152l-11.327,0c-1.216,0 -1.6,-0.544 -1.152,-1.632l22.464,-64.416c0.32,-0.768 0.927,-1.152 1.824,-1.152l11.615,-0c0.96,-0 1.569,0.384 1.825,1.152l22.464,64.416Zm-38.881,-21.6l17.472,-0l-8.735,-26.688l-8.737,26.688Zm77.037,24.48c-9.728,0 -17.984,-3.296 -24.768,-9.888c-6.72,-6.656 -10.08,-14.88 -10.08,-24.672c-0,-9.792 3.36,-18.016 10.08,-24.672c6.72,-6.656 14.88,-9.984 24.48,-9.984c9.408,-0 17.216,3.168 23.424,9.504c0.768,0.768 0.768,1.6 -0,2.496l-6.432,6.816c-0.64,0.768 -1.344,0.832 -2.112,0.192c-4.48,-3.712 -9.408,-5.568 -14.784,-5.568c-5.888,0 -10.816,2.016 -14.784,6.048c-3.968,4.032 -5.952,9.088 -5.952,15.168c-0,6.08 2.016,11.136 6.048,15.168c4.032,3.968 9.152,5.952 15.36,5.952c5.12,0 9.216,-1.312 12.288,-3.936c3.072,-2.624 4.768,-5.92 5.088,-9.888l-17.376,-0c-0.96,-0 -1.44,-0.48 -1.44,-1.44l-0,-9.312c-0,-0.96 0.48,-1.44 1.44,-1.44l28.992,-0c0.96,-0 1.44,0.48 1.44,1.44l-0,6.24c-0,9.088 -2.816,16.672 -8.448,22.752c-5.568,6.016 -13.056,9.024 -22.464,9.024Zm93.639,-68.448c0.96,-0 1.44,0.48 1.44,1.44l0,64.32c0,0.96 -0.48,1.44 -1.44,1.44l-12.767,0c-0.768,0 -1.344,-0.32 -1.728,-0.96l-24,-44.256l-0,43.776c-0,0.96 -0.48,1.44 -1.44,1.44l-10.849,0c-0.96,0 -1.44,-0.48 -1.44,-1.44l0,-64.32c0,-0.96 0.48,-1.44 1.44,-1.44l12.769,-0c0.768,-0 1.344,0.32 1.727,0.96l24,44.256l0,-43.776c0,-0.96 0.48,-1.44 1.44,-1.44l10.848,-0Zm71.173,65.568c0.192,0.448 0.16,0.832 -0.096,1.152c-0.256,0.32 -0.64,0.48 -1.152,0.48l-11.328,0c-0.832,0 -1.376,-0.384 -1.632,-1.152l-3.264,-9.888l-25.344,0l-3.264,9.888c-0.256,0.768 -0.8,1.152 -1.632,1.152l-11.328,0c-1.216,0 -1.6,-0.544 -1.152,-1.632l22.464,-64.416c0.32,-0.768 0.928,-1.152 1.824,-1.152l11.616,-0c0.96,-0 1.568,0.384 1.824,1.152l22.464,64.416Zm-38.88,-21.6l17.472,-0l-8.736,-26.688l-8.736,26.688Zm52.408,23.232c-0.96,0 -1.44,-0.48 -1.44,-1.44l-0,-53.568l-13.152,-0c-0.96,-0 -1.44,-0.48 -1.44,-1.44l0,-9.312c0,-0.96 0.48,-1.44 1.44,-1.44l39.936,-0c0.96,-0 1.44,0.48 1.44,1.44l0,9.312c0,0.96 -0.48,1.44 -1.44,1.44l-13.056,-0l-0,53.568c-0,0.96 -0.48,1.44 -1.44,1.44l-10.848,0Z" style="fill:#352416;fill-rule:nonzero;"/></svg>